<svg width="24" height="24" viewBox="0 0 24 24" fill="none" xmlns="http://www.w3.org/2000/svg">
<path fill-rule="evenodd" clip-rule="evenodd" d="M20.339 7.65923C21.009 8.17823 21.42 8.94923 21.49 9.78823L21.5 9.98923V18.0982C21.5 20.1882 19.849 21.8882 17.78 21.9982H15.79C14.839 21.9792 14.07 21.2392 14 20.3092L13.99 20.1682V17.3092C13.99 16.9982 13.759 16.7392 13.45 16.6882L13.36 16.6782H10.689C10.37 16.6882 10.11 16.9182 10.07 17.2182L10.06 17.3092V20.1592C10.06 20.2182 10.049 20.2882 10.04 20.3382L10.03 20.3592L10.019 20.4282C9.9 21.2792 9.2 21.9282 8.33 21.9892L8.2 21.9982H6.41C4.32 21.9982 2.61 20.3592 2.5 18.2982V9.98923C2.509 9.13823 2.88 8.34823 3.5 7.79823L9.73 2.78823C11 1.77923 12.78 1.73923 14.089 2.66823L14.25 2.78823L20.339 7.65923ZM20.099 18.2582L20.11 18.0982V9.99823C20.099 9.56923 19.92 9.16823 19.61 8.86923L19.48 8.75823L13.38 3.87823C12.62 3.26823 11.54 3.23923 10.74 3.76823L10.589 3.87823L4.509 8.77923C4.16 9.03823 3.95 9.42823 3.9 9.83823L3.889 9.99823V18.0982C3.889 19.4282 4.929 20.5182 6.25 20.5982H8.2C8.42 20.5982 8.61 20.4492 8.639 20.2392L8.66 20.0592L8.67 20.0082V17.3092C8.67 16.2392 9.49 15.3692 10.54 15.2882H13.36C14.429 15.2882 15.299 16.1092 15.38 17.1592V20.1682C15.38 20.3782 15.53 20.5592 15.73 20.5982H17.589C18.929 20.5982 20.019 19.5692 20.099 18.2582Z" fill="#757575"/>
</svg>
