<svg width="20" height="20" viewBox="0 0 20 20" fill="none" xmlns="http://www.w3.org/2000/svg">
<path opacity="0.4" d="M18.3337 13.2837C18.3337 15.6087 16.467 17.492 14.142 17.5003H14.1337H5.87533C3.55866 17.5003 1.66699 15.6253 1.66699 13.3003V13.292C1.66699 13.292 1.67199 9.60366 1.67866 7.74866C1.67949 7.40033 2.07949 7.20533 2.35199 7.42199C4.33199 8.99283 7.87283 11.857 7.91699 11.8945C8.50866 12.3687 9.25866 12.6362 10.0253 12.6362C10.792 12.6362 11.542 12.3687 12.1337 11.8853C12.1778 11.8562 15.6395 9.07783 17.6495 7.48116C17.9228 7.26366 18.3245 7.45866 18.3253 7.80616C18.3337 9.64699 18.3337 13.2837 18.3337 13.2837Z" fill="#757575"/>
<path d="M17.8967 4.72785C17.1751 3.36785 15.7551 2.49951 14.1917 2.49951H5.87507C4.31173 2.49951 2.89173 3.36785 2.17007 4.72785C2.0084 5.03201 2.08507 5.41118 2.35423 5.62618L8.54173 10.5753C8.97507 10.9253 9.50007 11.0995 10.0251 11.0995C10.0284 11.0995 10.0309 11.0995 10.0334 11.0995C10.0359 11.0995 10.0392 11.0995 10.0417 11.0995C10.5667 11.0995 11.0917 10.9253 11.5251 10.5753L17.7126 5.62618C17.9817 5.41118 18.0584 5.03201 17.8967 4.72785Z" fill="#757575"/>
</svg>
