<svg width="24" height="24" viewBox="0 0 24 24" fill="none" xmlns="http://www.w3.org/2000/svg">
<path fill-rule="evenodd" clip-rule="evenodd" d="M11.6643 18.6316L5.73297 21.8811C5.2594 22.1272 4.67597 21.953 4.41489 21.4875V21.4875C4.33936 21.3433 4.29861 21.1834 4.2959 21.0206V6.62247C4.2959 3.87647 6.17233 2.77808 8.87256 2.77808H15.2158C17.8337 2.77808 19.7925 3.80325 19.7925 6.4394V21.0206C19.7925 21.2804 19.6893 21.5295 19.5056 21.7132C19.3219 21.8969 19.0728 22 18.8131 22C18.6474 21.9974 18.4845 21.9567 18.3371 21.8811L12.3691 18.6316C12.1492 18.5128 11.8842 18.5128 11.6643 18.6316Z" stroke="#C2C2C2" stroke-width="1.5" stroke-linecap="round" stroke-linejoin="round"/>
<path d="M8.36914 9.32266H15.6643" stroke="#C2C2C2" stroke-width="1.5" stroke-linecap="round" stroke-linejoin="round"/>
</svg>
