<svg width="46" height="46" viewBox="0 0 46 46" fill="none" xmlns="http://www.w3.org/2000/svg">
<mask id="path-1-outside-1_1_1353" maskUnits="userSpaceOnUse" x="0" y="0" width="46" height="46" fill="black">
<rect fill="white" width="46" height="46"/>
<path d="M43 23C43 18.5973 41.5473 14.3177 38.8671 10.8248C36.1869 7.33189 32.429 4.82098 28.1764 3.68148C23.9237 2.54198 19.4139 2.83757 15.3463 4.52241C11.2788 6.20724 7.88083 9.18716 5.67949 13C3.47815 16.8128 2.59644 21.2455 3.1711 25.6105C3.74577 29.9755 5.7447 34.029 8.85786 37.1421C11.971 40.2553 16.0245 42.2542 20.3895 42.8289C24.7545 43.4036 29.1872 42.5219 33 40.3205L23 23H43Z"/>
</mask>
<path d="M43 23C43 18.5973 41.5473 14.3177 38.8671 10.8248C36.1869 7.33189 32.429 4.82098 28.1764 3.68148C23.9237 2.54198 19.4139 2.83757 15.3463 4.52241C11.2788 6.20724 7.88083 9.18716 5.67949 13C3.47815 16.8128 2.59644 21.2455 3.1711 25.6105C3.74577 29.9755 5.7447 34.029 8.85786 37.1421C11.971 40.2553 16.0245 42.2542 20.3895 42.8289C24.7545 43.4036 29.1872 42.5219 33 40.3205L23 23H43Z" stroke="#048BF8" stroke-width="6" mask="url(#path-1-outside-1_1_1353)"/>
<circle cx="23" cy="23" r="20" fill="white"/>
</svg>
