<svg width="20" height="20" viewBox="0 0 20 20" fill="none" xmlns="http://www.w3.org/2000/svg">
<path fill-rule="evenodd" clip-rule="evenodd" d="M6.47432 7.26123H13.5263C15.4909 7.26123 17.0837 8.8189 17.0837 10.7401V14.8542C17.0837 16.7754 15.4909 18.333 13.5263 18.333H6.47432C4.50979 18.333 2.91699 16.7754 2.91699 14.8542V10.7401C2.91699 8.8189 4.50979 7.26123 6.47432 7.26123ZM9.99609 14.4409C10.411 14.4409 10.7413 14.118 10.7413 13.7122V11.8738C10.7413 11.4763 10.411 11.1533 9.99609 11.1533C9.58964 11.1533 9.25939 11.4763 9.25939 11.8738V13.7122C9.25939 14.118 9.58964 14.4409 9.99609 14.4409Z" fill="#757575"/>
<path opacity="0.4" d="M14.603 6.16313V7.38873C14.3066 7.30592 13.9933 7.26451 13.6715 7.26451H13.1211V6.16313C13.1211 4.48207 11.7239 3.11569 10.0049 3.11569C8.28596 3.11569 6.88877 4.47379 6.88031 6.14657V7.26451H6.33837C6.00812 7.26451 5.69481 7.30592 5.39844 7.39701V6.16313C5.40691 3.67881 7.46459 1.6665 9.988 1.6665C12.5453 1.6665 14.603 3.67881 14.603 6.16313Z" fill="#757575"/>
</svg>
