<svg width="111" height="29" viewBox="0 0 111 29" fill="none" xmlns="http://www.w3.org/2000/svg">
<mask id="mask0_0_6" style="mask-type:alpha" maskUnits="userSpaceOnUse" x="0" y="0" width="111" height="29">
<rect width="111" height="28.2" fill="#C4C4C4"/>
</mask>
<g mask="url(#mask0_0_6)">
<path d="M4.7998 4.2002V23.75H8.82477V10.0323H8.87953L13.6712 23.75H16.9842L21.7759 9.89539H21.8306V23.75H25.8556V4.2002H19.8044L15.4783 17.6441H15.4235L10.8509 4.2002H4.7998Z" fill="#0A0A0A"/>
<path d="M53.7991 23.75L58.5908 9.5942H54.7301L51.7456 19.2596H51.6908L48.7063 9.5942H44.6266L49.473 23.75H53.7991Z" fill="#0A0A0A"/>
<path d="M64.191 7.40374V4.2002H60.3029V7.40374H64.191ZM60.3029 9.5942V23.75H64.191V9.5942H60.3029Z" fill="#0A0A0A"/>
<path d="M76.781 15.1525H70.456C70.4743 14.8787 70.529 14.5684 70.6203 14.2215C70.7298 13.8747 70.9032 13.5462 71.1405 13.2358C71.3961 12.9255 71.7247 12.67 72.1262 12.4692C72.5461 12.2501 73.0663 12.1406 73.6869 12.1406C74.6361 12.1406 75.3389 12.3962 75.7953 12.9073C76.2699 13.4184 76.5984 14.1668 76.781 15.1525ZM70.456 17.6168H80.669C80.742 16.5215 80.6508 15.4719 80.3952 14.468C80.1397 13.464 79.7198 12.5696 79.1357 11.7847C78.5698 10.9997 77.8397 10.3791 76.9453 9.92277C76.0508 9.44817 75.0012 9.21087 73.7965 9.21087C72.7195 9.21087 71.7338 9.40253 70.8393 9.78586C69.9632 10.1692 69.2056 10.6986 68.5667 11.3739C67.9279 12.0311 67.435 12.816 67.0882 13.7287C66.7414 14.6414 66.568 15.6271 66.568 16.6858C66.568 17.781 66.7322 18.785 67.0608 19.6977C67.4076 20.6104 67.8914 21.3953 68.512 22.0524C69.1326 22.7096 69.8901 23.2207 70.7846 23.5858C71.679 23.9326 72.683 24.106 73.7965 24.106C75.4028 24.106 76.7718 23.7409 77.9036 23.0108C79.0353 22.2806 79.875 21.0667 80.4226 19.3691H77C76.8722 19.8072 76.5254 20.2271 75.9595 20.6286C75.3937 21.012 74.7183 21.2036 73.9334 21.2036C72.8381 21.2036 71.9985 20.9207 71.4143 20.3548C70.8302 19.789 70.5108 18.8763 70.456 17.6168Z" fill="#0A0A0A"/>
<path d="M82.975 9.5942V23.75H86.8631V17.3703C86.8631 16.7314 86.927 16.1382 87.0547 15.5906C87.1825 15.043 87.3924 14.5684 87.6845 14.1668C87.9948 13.7469 88.3964 13.4184 88.8892 13.1811C89.3821 12.9438 89.9845 12.8251 90.6964 12.8251C90.9337 12.8251 91.1801 12.8434 91.4356 12.8799C91.6912 12.8981 91.9102 12.9255 92.0928 12.962V9.34777C91.7825 9.2565 91.4995 9.21087 91.244 9.21087C90.7511 9.21087 90.2765 9.28389 89.8202 9.42992C89.3638 9.57595 88.9349 9.78586 88.5333 10.0597C88.1317 10.3152 87.7757 10.6347 87.4654 11.018C87.1551 11.3831 86.9087 11.7847 86.7262 12.2227H86.6714V9.5942H82.975Z" fill="#0A0A0A"/>
<path d="M96.629 19.1501H92.9326C92.9691 20.0993 93.179 20.8933 93.5624 21.5322C93.9639 22.1528 94.4659 22.6548 95.0683 23.0381C95.6889 23.4215 96.3917 23.6953 97.1766 23.8596C97.9615 24.0238 98.7647 24.106 99.5861 24.106C100.389 24.106 101.174 24.0238 101.941 23.8596C102.726 23.7135 103.419 23.4489 104.022 23.0655C104.624 22.6822 105.108 22.1802 105.473 21.5596C105.856 20.9207 106.048 20.1358 106.048 19.2048C106.048 18.5477 105.92 18.0001 105.665 17.562C105.409 17.1056 105.071 16.7314 104.652 16.4394C104.232 16.1291 103.748 15.8826 103.2 15.7001C102.671 15.5176 102.123 15.3624 101.558 15.2346C101.01 15.1069 100.471 14.9882 99.9421 14.8787C99.4127 14.7692 98.9381 14.6505 98.5183 14.5227C98.1167 14.3767 97.7881 14.1942 97.5326 13.9751C97.277 13.7561 97.1492 13.4731 97.1492 13.1263C97.1492 12.8343 97.2223 12.6061 97.3683 12.4418C97.5143 12.2593 97.6877 12.1224 97.8885 12.0311C98.1076 11.9398 98.3449 11.8851 98.6004 11.8668C98.856 11.8303 99.0933 11.812 99.3123 11.812C100.006 11.812 100.608 11.9489 101.119 12.2227C101.631 12.4783 101.913 12.9803 101.968 13.7287H105.665C105.592 12.8525 105.363 12.1315 104.98 11.5656C104.615 10.9815 104.15 10.516 103.584 10.1692C103.018 9.82237 102.37 9.57595 101.64 9.42992C100.928 9.28389 100.188 9.21087 99.4218 9.21087C98.6552 9.21087 97.9068 9.28389 97.1766 9.42992C96.4465 9.55769 95.7893 9.79499 95.2052 10.1418C94.6211 10.4704 94.1465 10.9267 93.7814 11.5109C93.4346 12.095 93.2612 12.8434 93.2612 13.7561C93.2612 14.3767 93.3889 14.9061 93.6445 15.3442C93.9001 15.764 94.2378 16.1199 94.6576 16.412C95.0774 16.6858 95.552 16.914 96.0814 17.0965C96.629 17.2608 97.1857 17.4068 97.7516 17.5346C99.1389 17.8267 100.216 18.1187 100.983 18.4108C101.767 18.7029 102.16 19.1409 102.16 19.7251C102.16 20.0719 102.078 20.364 101.913 20.6013C101.749 20.8203 101.539 21.0028 101.284 21.1489C101.046 21.2766 100.773 21.377 100.462 21.4501C100.17 21.5048 99.8873 21.5322 99.6135 21.5322C99.2302 21.5322 98.856 21.4866 98.4909 21.3953C98.1441 21.304 97.8338 21.1671 97.5599 20.9846C97.2861 20.7838 97.058 20.5374 96.8754 20.2453C96.7111 19.935 96.629 19.5699 96.629 19.1501Z" fill="#0A0A0A"/>
<g filter="url(#filter0_b_0_6)">
<circle cx="35.9958" cy="15.7639" r="7.98605" fill="#048BF8"/>
</g>
<path d="M39.1416 16.4351C39.1189 16.4653 39.013 16.5938 38.9298 16.677L38.8844 16.7223C38.2492 17.4102 36.6686 18.4458 35.867 18.7784C35.867 18.7859 35.3905 18.9825 35.1637 18.99H35.1334C34.7855 18.99 34.4603 18.7935 34.294 18.476C34.2032 18.3022 34.12 17.7957 34.1125 17.7882C34.0444 17.3346 33.999 16.64 33.999 15.8757C33.999 15.0745 34.0444 14.3489 34.1276 13.9029C34.1276 13.8953 34.2108 13.4871 34.2637 13.3511C34.3469 13.1545 34.4982 12.9883 34.6872 12.8824C34.8385 12.8068 34.9973 12.769 35.1637 12.769C35.3376 12.7766 35.6628 12.8907 35.7913 12.9429C36.6384 13.2755 38.2567 14.364 38.8769 15.0292C38.9827 15.135 39.0962 15.2635 39.1264 15.2937C39.255 15.46 39.3231 15.6641 39.3231 15.8841C39.3231 16.0798 39.2626 16.2764 39.1416 16.4351Z" fill="white"/>
</g>
<defs>
<filter id="filter0_b_0_6" x="16.0098" y="-4.22217" width="39.9717" height="39.9722" filterUnits="userSpaceOnUse" color-interpolation-filters="sRGB">
<feFlood flood-opacity="0" result="BackgroundImageFix"/>
<feGaussianBlur in="BackgroundImageFix" stdDeviation="6"/>
<feComposite in2="SourceAlpha" operator="in" result="effect1_backgroundBlur_0_6"/>
<feBlend mode="normal" in="SourceGraphic" in2="effect1_backgroundBlur_0_6" result="shape"/>
</filter>
</defs>
</svg>
