<svg width="16" height="16" viewBox="0 0 16 16" fill="none" xmlns="http://www.w3.org/2000/svg">
<path fill-rule="evenodd" clip-rule="evenodd" d="M10.4357 1.3335C10.5179 2.11416 10.2167 2.89876 9.76917 3.46236C9.32163 4.02633 8.58711 4.46435 7.86811 4.40647C7.77012 3.64126 8.13327 2.84285 8.54793 2.34403C9.01063 1.78073 9.79066 1.36047 10.4357 1.3335ZM13.0991 11.1137C13.0215 11.081 11.3995 10.3976 11.3818 8.41708C11.3676 6.7651 12.6512 5.95322 12.7614 5.88355C12.7637 5.88207 12.7655 5.88093 12.7667 5.88012C12.0136 4.73315 10.8407 4.57563 10.4229 4.55754C9.81237 4.49317 9.22008 4.73625 8.73641 4.93475C8.42932 5.06077 8.16602 5.16883 7.96964 5.16883C7.75053 5.16883 7.47981 5.05711 7.17604 4.93176C6.7783 4.76763 6.32392 4.58013 5.8546 4.58944C4.76643 4.60589 3.76388 5.24745 3.20288 6.26057C2.07361 8.30069 2.91463 11.323 4.01513 12.9784C4.55371 13.7876 5.19559 14.6991 6.03853 14.666C6.41575 14.6505 6.68391 14.5317 6.96117 14.4088C7.28094 14.2671 7.61282 14.1201 8.13811 14.1201C8.63993 14.1201 8.95725 14.2629 9.26237 14.4002C9.55375 14.5314 9.83399 14.6575 10.2532 14.6495C11.1264 14.6327 11.6808 13.8235 12.2149 13.0112C12.813 12.102 13.0708 11.2207 13.0997 11.1221C13.1006 11.1188 13.1013 11.1164 13.1018 11.1149C13.1014 11.1147 13.1005 11.1143 13.0991 11.1137Z" fill="white"/>
</svg>
