<svg width="11" height="13" viewBox="0 0 11 13" fill="none" xmlns="http://www.w3.org/2000/svg">
<path d="M10.6247 7.57424C10.5778 7.63671 10.3591 7.9022 10.1872 8.07398L10.0934 8.16768C8.78098 9.58883 5.51546 11.7284 3.85926 12.4155C3.85926 12.4311 2.87491 12.8372 2.40618 12.8528H2.34368C1.62495 12.8528 0.953096 12.4467 0.609356 11.7908C0.421862 11.4316 0.249992 10.3853 0.234368 10.3697C0.0937471 9.43266 0 7.99746 0 6.41858C0 4.76318 0.0937471 3.26395 0.265617 2.34255C0.265617 2.32693 0.437487 1.48361 0.546858 1.20251C0.718728 0.796466 1.03122 0.452893 1.42183 0.234255C1.73432 0.0780849 2.06244 0 2.40618 0C2.76554 0.015617 3.4374 0.251433 3.70301 0.359191C5.45296 1.04634 8.79661 3.29518 10.0778 4.66948C10.2966 4.88812 10.5309 5.15361 10.5934 5.21607C10.859 5.55965 10.9997 5.98131 10.9997 6.43576C10.9997 6.84024 10.8747 7.24628 10.6247 7.57424Z" fill="white"/>
</svg>
