<svg width="20" height="20" viewBox="0 0 20 20" fill="none" xmlns="http://www.w3.org/2000/svg">
<path fill-rule="evenodd" clip-rule="evenodd" d="M2.5 14.058V7.71387H17.5V14.1089C17.5 16.7247 15.8535 18.333 13.219 18.333H6.77278C4.16301 18.333 2.5 16.6914 2.5 14.058ZM6.63282 12.008C6.25412 12.0255 5.94127 11.7247 5.92481 11.3422C5.92481 10.9589 6.22119 10.6422 6.59989 10.6247C6.97036 10.6247 7.27497 10.9172 7.28321 11.2914C7.29967 11.6755 7.00329 11.9922 6.63282 12.008ZM10.0165 12.008C9.63776 12.0255 9.32492 11.7247 9.30845 11.3422C9.30845 10.9589 9.60483 10.6422 9.98353 10.6247C10.354 10.6247 10.6586 10.9172 10.6669 11.2914C10.6833 11.6755 10.3869 11.9922 10.0165 12.008ZM13.3754 15.0747C12.9967 15.0664 12.6921 14.7497 12.6921 14.3664C12.6839 13.983 12.9885 13.6672 13.3672 13.6589H13.3754C13.7623 13.6589 14.0752 13.9755 14.0752 14.3664C14.0752 14.758 13.7623 15.0747 13.3754 15.0747ZM9.30845 14.3664C9.32492 14.7497 9.63776 15.0505 10.0165 15.033C10.3869 15.0172 10.6833 14.7005 10.6669 14.3172C10.6586 13.9422 10.354 13.6497 9.98353 13.6497C9.60483 13.6672 9.30845 13.983 9.30845 14.3664ZM5.91658 14.3664C5.93304 14.7497 6.24588 15.0505 6.62459 15.033C6.99506 15.0172 7.29144 14.7005 7.27497 14.3172C7.26674 13.9422 6.96213 13.6497 6.59166 13.6497C6.21295 13.6672 5.91658 13.983 5.91658 14.3664ZM12.7003 11.3339C12.7003 10.9505 12.9967 10.6422 13.3754 10.6339C13.7459 10.6339 14.0423 10.933 14.0587 11.3005C14.067 11.6839 13.7706 12.0005 13.4001 12.008C13.0214 12.0164 12.7086 11.7247 12.7003 11.3422V11.3339Z" fill="#757575"/>
<path opacity="0.4" d="M2.50293 7.71404C2.51363 7.22487 2.5548 6.25404 2.63218 5.94154C3.02735 4.18404 4.36929 3.06737 6.28751 2.9082H13.7134C15.6152 3.0757 16.9736 4.19987 17.3687 5.94154C17.4453 6.2457 17.4865 7.22404 17.4972 7.71404H2.50293Z" fill="#757575"/>
<path d="M6.92103 5.4915C7.28327 5.4915 7.55495 5.21734 7.55495 4.84984V2.309C7.55495 1.9415 7.28327 1.6665 6.92103 1.6665C6.55879 1.6665 6.28711 1.9415 6.28711 2.309V4.84984C6.28711 5.21734 6.55879 5.4915 6.92103 5.4915Z" fill="#757575"/>
<path d="M13.0792 5.4915C13.4332 5.4915 13.7132 5.21734 13.7132 4.84984V2.309C13.7132 1.9415 13.4332 1.6665 13.0792 1.6665C12.717 1.6665 12.4453 1.9415 12.4453 2.309V4.84984C12.4453 5.21734 12.717 5.4915 13.0792 5.4915Z" fill="#757575"/>
</svg>
